<mxfile host="app.diagrams.net" modified="2024-07-04T10:32:39.640Z" agent="Mozilla/5.0 (Macintosh; Intel Mac OS X 10.15; rv:127.0) Gecko/20100101 Firefox/127.0" version="24.6.4" etag="Puf-RNDcEEY5odKWFMCD" type="github">
  <diagram name="Page-1" id="QGG-NfaWTPkm5Gr-PFjN">
    <mxGraphModel>
      <root>
        <mxCell id="0" />
        <mxCell id="1" parent="0" />
      </root>
    </mxGraphModel>
  </diagram>
</mxfile>
